<svg height="2206" width="720" xmlns="http://www.w3.org/2000/svg">
<rect height="2206" fill="#555" width="720"></rect>
<text fill="#7f7" font-family="Courier New" font-size="12" xml:space="preserve">
<tspan x="10" y="26"></tspan>
<tspan x="10" y="42">&gt; npmdoc-slow-deps@0.0.1 test /home/travis/build/npmdoc/node-npmdoc-slow-deps</tspan>
<tspan x="10" y="58">&gt; (set -e; export PORT=$(utility2 shServerPortRandom); utility2 test test.js)</tspan>
<tspan x="10" y="74"></tspan>
<tspan x="10" y="90"></tspan>
<tspan x="10" y="106">[MODE_BUILD=npmTest] - 2017-04-04T08:23:43Z - npm-testing /home/travis/build/npmdoc/node-npmdoc-\</tspan>
<tspan x="10" y="122">slow-deps</tspan>
<tspan x="10" y="138"></tspan>
<tspan x="10" y="154"></tspan>
<tspan x="10" y="170">covering $ /home/travis/.nvm/versions/node/v6.10.1/bin/node /home/travis/build/npmdoc/node-npmdo\</tspan>
<tspan x="10" y="186">c-slow-deps/test.js</tspan>
<tspan x="10" y="202">merging file:///home/travis/build/npmdoc/node-npmdoc-slow-deps/tmp/build/test-report.json to tes\</tspan>
<tspan x="10" y="218">t-report</tspan>
<tspan x="10" y="234">&gt; server listening on http-port 62305</tspan>
<tspan x="10" y="250">created apidoc file:///home/travis/build/npmdoc/node-npmdoc-slow-deps/tmp/build/apidoc.html</tspan>
<tspan x="10" y="266"></tspan>
<tspan x="10" y="282"></tspan>
<tspan x="10" y="298">browserTest - created electron entry-page /home/travis/build/npmdoc/node-npmdoc-slow-deps/tmp/el\</tspan>
<tspan x="10" y="314">ectron.15b381001530.94aeec9aea118.html</tspan>
<tspan x="10" y="330"></tspan>
<tspan x="10" y="346">[node test-case 1 of 6 passed] - testCase_buildLib_default</tspan>
<tspan x="10" y="362">[node test-case 2 of 6 passed] - testCase_buildReadme_default</tspan>
<tspan x="10" y="378">[node test-case 3 of 6 passed] - testCase_buildTest_default</tspan>
<tspan x="10" y="394"></tspan>
<tspan x="10" y="410">browserTest - created electron entry-page /home/travis/build/npmdoc/node-npmdoc-slow-deps/tmp/el\</tspan>
<tspan x="10" y="426">ectron.15b381001900.8a69a1ea7180a.html</tspan>
<tspan x="10" y="442"></tspan>
<tspan x="10" y="458">Xlib:  extension "RANDR" missing on display ":99.0".</tspan>
<tspan x="10" y="474">Analyzing 3 dependencies...</tspan>
<tspan x="10" y="490">Xlib:  extension "RANDR" missing on display ":99.0".</tspan>
<tspan x="10" y="506">&gt; server listening on http-port 36442</tspan>
<tspan x="10" y="522">merging file:///home/travis/build/npmdoc/node-npmdoc-slow-deps/tmp/build/test-report.json to tes\</tspan>
<tspan x="10" y="538">t-report</tspan>
<tspan x="10" y="554">Xlib:  extension "RANDR" missing on display ":99.0".</tspan>
<tspan x="10" y="570">[4882:0404/082346:WARNING:audio_manager.cc(314)] Multiple instances of AudioManager detected</tspan>
<tspan x="10" y="586">[4882:0404/082346:WARNING:audio_manager.cc(275)] Multiple instances of AudioManager detected</tspan>
<tspan x="10" y="602">[4930:0404/082346:ERROR:sandbox_linux.cc(343)] InitializeSandbox() called with multiple threads \</tspan>
<tspan x="10" y="618">in process gpu-process. </tspan>
<tspan x="10" y="634">[4882:0404/082346:ERROR:browser_gpu_channel_host_factory.cc(131)] Failed to create channel.</tspan>
<tspan x="10" y="650">merging file:///home/travis/build/npmdoc/node-npmdoc-slow-deps/tmp/build/test-report.json to tes\</tspan>
<tspan x="10" y="666">t-report</tspan>
<tspan x="10" y="682">Xlib:  extension "RANDR" missing on display ":99.0".</tspan>
<tspan x="10" y="698">[4886:0404/082346:WARNING:audio_manager.cc(314)] Multiple instances of AudioManager detected</tspan>
<tspan x="10" y="714">[4886:0404/082346:WARNING:audio_manager.cc(275)] Multiple instances of AudioManager detected</tspan>
<tspan x="10" y="730">[4957:0404/082346:ERROR:sandbox_linux.cc(343)] InitializeSandbox() called with multiple threads \</tspan>
<tspan x="10" y="746">in process gpu-process. </tspan>
<tspan x="10" y="762">[4886:0404/082346:ERROR:browser_gpu_channel_host_factory.cc(131)] Failed to create channel.</tspan>
<tspan x="10" y="778"></tspan>
<tspan x="10" y="794">browserTest - opened url /home/travis/build/npmdoc/node-npmdoc-slow-deps/tmp/build/apidoc.html</tspan>
<tspan x="10" y="810"></tspan>
<tspan x="10" y="826"></tspan>
<tspan x="10" y="842">browserTest - opened url http://127.0.0.1:62305?modeTest=1</tspan>
<tspan x="10" y="858"></tspan>
<tspan x="10" y="874">[4886:0404/082349:INFO:CONSOLE(245)] "----------|-----------|-----------|-----------|-----------\</tspan>
<tspan x="10" y="890">|</tspan>
<tspan x="10" y="906">File      |   % Stmts |% Branches |   % Funcs |   % Lines |</tspan>
<tspan x="10" y="922">----------|-----------|-----------|-----------|-----------|</tspan>
<tspan x="10" y="938">----------|-----------|-----------|-----------|-----------|</tspan>
<tspan x="10" y="954">All files |       100 |       100 |       100 |       100 |</tspan>
<tspan x="10" y="970">----------|-----------|-----------|-----------|-----------|</tspan>
<tspan x="10" y="986">", source: file:///home/travis/build/npmdoc/node-npmdoc-slow-deps/tmp/electron.15b381001900.8a69\</tspan>
<tspan x="10" y="1002">a1ea7180a.html (245)</tspan>
<tspan x="10" y="1018">[4886:0404/082349:INFO:CONSOLE(245)] "created coverage file:///tmp/build/coverage.html/index.htm\</tspan>
<tspan x="10" y="1034">l", source: file:///home/travis/build/npmdoc/node-npmdoc-slow-deps/tmp/electron.15b381001900.8a6\</tspan>
<tspan x="10" y="1050">9a1ea7180a.html (245)</tspan>
<tspan x="10" y="1066">[node test-case 4 of 6 passed] - testCase_buildApp_default</tspan>
<tspan x="10" y="1082"></tspan>
<tspan x="10" y="1098">------------------------------------------</tspan>
<tspan x="10" y="1114">| Dependency    | Time | Size   | # Deps |</tspan>
<tspan x="10" y="1130">------------------------------------------</tspan>
<tspan x="10" y="1146">| electron-lite | 4.4s | 118 MB | 1      |</tspan>
<tspan x="10" y="1162">| slow-deps     | 4.4s | 1.8 MB | 71     |</tspan>
<tspan x="10" y="1178">| utility2      | 1.5s | 2.4 MB | 1      |</tspan>
<tspan x="10" y="1194">------------------------------------------</tspan>
<tspan x="10" y="1210">Total time (non-deduped): 10.3s</tspan>
<tspan x="10" y="1226">Total size (non-deduped): 122 MB</tspan>
<tspan x="10" y="1242"></tspan>
<tspan x="10" y="1258">browserTest - created screenCapture file:///home/travis/build/npmdoc/node-npmdoc-slow-deps/tmp/b\</tspan>
<tspan x="10" y="1274">uild/screenCapture.npmTest.browser._2Fhome_2Ftravis_2Fbuild_2Fnpmdoc_2Fnode-npmdoc-slow-deps_2Ft\</tspan>
<tspan x="10" y="1290">mp_2Fbuild_2Fapidoc.html.png</tspan>
<tspan x="10" y="1306"></tspan>
<tspan x="10" y="1322">browserTest - created screenCapture file:///home/travis/build/npmdoc/node-npmdoc-slow-deps/tmp/b\</tspan>
<tspan x="10" y="1338">uild/screenCapture.npmTest.browser._2Fhome_2Ftravis_2Fbuild_2Fnpmdoc_2Fnode-npmdoc-slow-deps_2Ft\</tspan>
<tspan x="10" y="1354">mp_2Fbuild_2Fapidoc.html.html</tspan>
<tspan x="10" y="1370"></tspan>
<tspan x="10" y="1386">browserTest - exit-code 0 - /home/travis/build/npmdoc/node-npmdoc-slow-deps/tmp/build/apidoc.htm\</tspan>
<tspan x="10" y="1402">l</tspan>
<tspan x="10" y="1418"></tspan>
<tspan x="10" y="1434">[node test-case 5 of 6 passed] - testCase_buildApidoc_default</tspan>
<tspan x="10" y="1450"></tspan>
<tspan x="10" y="1466">browserTest - created screenCapture file:///home/travis/build/npmdoc/node-npmdoc-slow-deps/tmp/b\</tspan>
<tspan x="10" y="1482">uild/screenCapture.npmTest.browser..png</tspan>
<tspan x="10" y="1498"></tspan>
<tspan x="10" y="1514">browserTest - created screenCapture file:///home/travis/build/npmdoc/node-npmdoc-slow-deps/tmp/b\</tspan>
<tspan x="10" y="1530">uild/screenCapture.npmTest.browser..html</tspan>
<tspan x="10" y="1546"></tspan>
<tspan x="10" y="1562">browserTest - exit-code 0 - http://127.0.0.1:62305?modeTest=1</tspan>
<tspan x="10" y="1578"></tspan>
<tspan x="10" y="1594"></tspan>
<tspan x="10" y="1610">browserTest - merged coverage from /home/travis/build/npmdoc/node-npmdoc-slow-deps/tmp/coverage.\</tspan>
<tspan x="10" y="1626">npmTest.browser.%2F.json</tspan>
<tspan x="10" y="1642"></tspan>
<tspan x="10" y="1658"></tspan>
<tspan x="10" y="1674">browserTest - merging test-report from /home/travis/build/npmdoc/node-npmdoc-slow-deps/tmp/test-\</tspan>
<tspan x="10" y="1690">report.npmTest.browser.%2F.json</tspan>
<tspan x="10" y="1706"></tspan>
<tspan x="10" y="1722">[node test-case 6 of 6 passed] - testCase_webpage_default</tspan>
<tspan x="10" y="1738">------------------------------|-----------|-----------|-----------|-----------|</tspan>
<tspan x="10" y="1754">File                          |   % Stmts |% Branches |   % Funcs |   % Lines |</tspan>
<tspan x="10" y="1770">------------------------------|-----------|-----------|-----------|-----------|</tspan>
<tspan x="10" y="1786">   node-npmdoc-slow-deps/     |       100 |       100 |       100 |       100 |</tspan>
<tspan x="10" y="1802">      example.js              |       100 |       100 |       100 |       100 |</tspan>
<tspan x="10" y="1818">      lib.npmdoc_slow_deps.js |       100 |       100 |       100 |       100 |</tspan>
<tspan x="10" y="1834">      test.js                 |       100 |       100 |       100 |       100 |</tspan>
<tspan x="10" y="1850">------------------------------|-----------|-----------|-----------|-----------|</tspan>
<tspan x="10" y="1866">All files                     |       100 |       100 |       100 |       100 |</tspan>
<tspan x="10" y="1882">------------------------------|-----------|-----------|-----------|-----------|</tspan>
<tspan x="10" y="1898"></tspan>
<tspan x="10" y="1914">created coverage file:///home/travis/build/npmdoc/node-npmdoc-slow-deps/tmp/build/coverage.html/\</tspan>
<tspan x="10" y="1930">index.html</tspan>
<tspan x="10" y="1946">merging file:///home/travis/build/npmdoc/node-npmdoc-slow-deps/tmp/build/test-report.json to tes\</tspan>
<tspan x="10" y="1962">t-report</tspan>
<tspan x="10" y="1978"></tspan>
<tspan x="10" y="1994">-------------------------------------------------------</tspan>
<tspan x="10" y="2010">| test-report - buildNpmdoc - node - linux v6.10.1 - 2017-04-04T08:23:27.215Z</tspan>
<tspan x="10" y="2026">|   28274 ms            0 failed        6 passed      |</tspan>
<tspan x="10" y="2042">-------------------------------------------------------</tspan>
<tspan x="10" y="2058"></tspan>
<tspan x="10" y="2074">created test-report file:///home/travis/build/npmdoc/node-npmdoc-slow-deps/tmp/build/test-report\</tspan>
<tspan x="10" y="2090">.html</tspan>
<tspan x="10" y="2106"></tspan>
<tspan x="10" y="2122"></tspan>
<tspan x="10" y="2138">npmTest - 0 failed tests</tspan>
<tspan x="10" y="2154"></tspan>
<tspan x="10" y="2170"></tspan>
<tspan x="10" y="2186">[MODE_BUILD=npmTest] - 2017-04-04T08:23:59Z - EXIT_CODE - 0</tspan>
</text>
</svg>
